<svg width="320" height="212" viewBox="0 0 320 212" fill="none" xmlns="http://www.w3.org/2000/svg">
<path d="M138.741 47.47C142.93 29.631 131.864 11.7738 114.025 7.58485C96.1864 3.39586 78.3292 14.4613 74.1402 32.3003C69.9512 50.1392 81.0167 67.9964 98.8557 72.1854C116.695 76.3744 134.552 65.3089 138.741 47.47Z" fill="white"/>
<path d="M239.423 47.4716C243.612 29.6327 232.546 11.7755 214.707 7.5865C196.868 3.3975 179.011 14.463 174.822 32.302C170.633 50.1409 181.699 67.9981 199.538 72.1871C217.377 76.3761 235.234 65.3106 239.423 47.4716Z" fill="#E8E8E8"/>
<path d="M219.83 122.567C209.551 105.511 190.814 94.0919 169.486 94.0919H58.8017C26.3967 94.0919 0 120.46 0 152.865C0 185.299 26.3967 211.667 58.8017 211.667H149.752C128.424 211.667 109.687 200.248 99.4076 183.191H58.8017C42.0867 183.191 28.4754 169.58 28.4754 152.865C28.4754 136.15 42.0867 122.567 58.8017 122.567H169.486C186.201 122.567 199.812 136.15 199.812 152.865C199.812 169.58 186.201 183.191 169.486 183.191H219.83C225.212 174.336 228.287 163.97 228.287 152.865C228.287 141.788 225.212 131.423 219.83 122.567Z" fill="white"/>
<path d="M169.486 94.0919H149.752C128.424 94.0919 109.687 105.511 99.4076 122.567H219.83C209.55 105.511 190.814 94.0919 169.486 94.0919Z" fill="white"/>
<path d="M319.238 152.865C319.238 185.299 292.841 211.667 260.436 211.667H149.752C128.424 211.667 109.687 200.248 99.4076 183.191C94.0258 174.336 90.9504 163.97 90.9504 152.865C90.9504 141.788 94.0258 131.423 99.4076 122.567H149.752C133.037 122.567 119.426 136.15 119.426 152.865C119.426 169.58 133.037 183.191 149.752 183.191H260.436C277.151 183.191 290.762 169.58 290.762 152.865C290.762 136.15 277.151 122.567 260.436 122.567H219.83C209.551 105.511 190.814 94.0919 169.486 94.0919H260.436C292.841 94.0919 319.238 120.46 319.238 152.865Z" fill="#E8E8E8"/>
</svg>
